<?xml version="1.0" standalone="no"?><!DOCTYPE svg PUBLIC "-//W3C//DTD SVG 1.1//EN" "http://www.w3.org/Graphics/SVG/1.1/DTD/svg11.dtd"><svg t="1526460354561" class="icon" style="" viewBox="0 0 1024 1024" version="1.1" xmlns="http://www.w3.org/2000/svg" p-id="2599" xmlns:xlink="http://www.w3.org/1999/xlink" width="200" height="200"><defs><style type="text/css"></style></defs><path d="M805.312 149.12c-192.352-74.528-294.624 71.904-296.352 74.368-1.728-2.496-104-148.928-296.352-74.368C20.064 223.744-67.68 593.44 473.92 885.664c15.36 8.288 27.584 10.72 35.008 10.976l0 0 0.032 0c0 0 0.032 0 0.032 0l0 0c7.424-0.256 19.616-2.688 35.008-10.976C1085.6 593.44 997.856 223.744 805.312 149.12zM538.976 815.616c-13.024 7.392-23.648 9.216-30.016 9.408-6.368-0.224-16.992-2.048-30.016-9.408C0 544 94.336 256.64 261.376 206.272c147.008-44.32 205.28 98.4 247.424 99.04l0 0.064c0.032 0 0.096-0.032 0.128-0.032s0.096 0.032 0.128 0.032L509.056 305.28c42.144-0.608 100.448-143.328 247.424-99.04C923.616 256.64 1024 540 538.976 815.616z" p-id="2600"></path></svg>