<?xml version="1.0" standalone="no"?><!DOCTYPE svg PUBLIC "-//W3C//DTD SVG 1.1//EN" "http://www.w3.org/Graphics/SVG/1.1/DTD/svg11.dtd"><svg t="1525943532413" class="icon" style="" viewBox="0 0 1024 1024" version="1.1" xmlns="http://www.w3.org/2000/svg" p-id="1870" xmlns:xlink="http://www.w3.org/1999/xlink" width="200" height="200" fill="#fff"><defs><style type="text/css"></style></defs><path d="M512 972.8a460.8 460.8 0 1 0 0-921.6 460.8 460.8 0 0 0 0 921.6z m0 51.2C229.2224 1024 0 794.7776 0 512S229.2224 0 512 0s512 229.2224 512 512-229.2224 512-512 512z m-232.704-486.4h465.408a25.6 25.6 0 1 0 0-51.2h-465.408a25.6 25.6 0 0 0 0 51.2zM486.4 279.296v465.408a25.6 25.6 0 1 0 51.2 0v-465.408a25.6 25.6 0 1 0-51.2 0z" p-id="1871"></path></svg>