<?xml version="1.0" standalone="no"?><!DOCTYPE svg PUBLIC "-//W3C//DTD SVG 1.1//EN" "http://www.w3.org/Graphics/SVG/1.1/DTD/svg11.dtd"><svg t="1526306428752" class="icon" style="" viewBox="0 0 1024 1024" version="1.1" xmlns="http://www.w3.org/2000/svg" p-id="1885" xmlns:xlink="http://www.w3.org/1999/xlink" width="200" height="200"><defs><style type="text/css"></style></defs><path d="M271.146667 496.853333a21.333333 21.333333 0 0 0-30.08 30.08l213.333333 213.333334a21.333333 21.333333 0 0 0 30.08 0l426.666667-426.666667a21.333333 21.333333 0 0 0-30.08-30.08L469.333333 695.253333z" fill="#666666" p-id="1886"></path><path d="M960 490.666667a21.333333 21.333333 0 0 0-21.333333 21.333333 426.666667 426.666667 0 1 1-203.946667-363.946667 21.333333 21.333333 0 1 0 21.333333-36.48A469.333333 469.333333 0 1 0 981.333333 512a21.333333 21.333333 0 0 0-21.333333-21.333333z" fill="#666666" p-id="1887"></path></svg>